{
	"asset":{
		"generator":"Khronos glTF Blender I/O v4.5.49",
		"version":"2.0"
	},
	"extensionsUsed":[
		"KHR_materials_specular",
		"KHR_materials_ior"
	],
	"scene":0,
	"scenes":[
		{
			"name":"Scene",
			"nodes":[
				0
			]
		}
	],
	"nodes":[
		{
			"mesh":0,
			"name":"Earth",
			"rotation":[
				-0.7071069478988647,
				0,
				0,
				0.7071066498756409
			],
			"scale":[
				100,
				100.00000762939453,
				100.00000762939453
			]
		}
	],
	"materials":[
		{
			"doubleSided":true,
			"extensions":{
				"KHR_materials_specular":{
					"specularColorFactor":[
						0.0,
						0.0,
						0.0
					]
				},
				"KHR_materials_ior":{
					"ior":1000
				}
			},
			"name":"Earth",
			"pbrMetallicRoughness":{
				"baseColorTexture":{
					"index":0
				},
				"metallicFactor":0,
				"roughnessFactor":0.34259259700775146
			}
		}
	],
	"meshes":[
		{
			"name":"Sphere_Material.002_0",
			"primitives":[
				{
					"attributes":{
						"POSITION":0,
						"NORMAL":1,
						"TEXCOORD_0":2
					},
					"indices":3,
					"material":0
				}
			]
		}
	],
	"textures":[
		{
			"sampler":0,
			"source":0
		}
	],
	"images":[
		{
			"mimeType":"image/png",
			"name":"Earth",
			"uri":"../../TEXTURES/Earth.png"
		}
	],
	"accessors":[
		{
			"bufferView":0,
			"componentType":5126,
			"count":1751,
			"max":[
				0.999999463558197,
				0.9999982118606567,
				1
			],
			"min":[
				-0.9999986290931702,
				-0.999998927116394,
				-1
			],
			"type":"VEC3"
		},
		{
			"bufferView":1,
			"componentType":5126,
			"count":1751,
			"type":"VEC3"
		},
		{
			"bufferView":2,
			"componentType":5126,
			"count":1751,
			"type":"VEC2"
		},
		{
			"bufferView":3,
			"componentType":5123,
			"count":9600,
			"type":"SCALAR"
		}
	],
	"bufferViews":[
		{
			"buffer":0,
			"byteLength":21012,
			"byteOffset":0,
			"target":34962
		},
		{
			"buffer":0,
			"byteLength":21012,
			"byteOffset":21012,
			"target":34962
		},
		{
			"buffer":0,
			"byteLength":14008,
			"byteOffset":42024,
			"target":34962
		},
		{
			"buffer":0,
			"byteLength":19200,
			"byteOffset":56032,
			"target":34963
		}
	],
	"samplers":[
		{
			"magFilter":9729,
			"minFilter":9987
		}
	],
	"buffers":[
		{
			"byteLength":75232,
			"uri":"Earth.bin"
		}
	]
}
