{
	"asset":{
		"generator":"Khronos glTF Blender I/O v4.5.49",
		"version":"2.0"
	},
	"scene":0,
	"scenes":[
		{
			"name":"Scene",
			"nodes":[
				0
			]
		}
	],
	"nodes":[
		{
			"mesh":0,
			"name":"100.001",
			"translation":[
				7.422065258026123,
				0.2767573893070221,
				-11.220690727233887
			]
		}
	],
	"materials":[
		{
			"doubleSided":true,
			"name":"100",
			"pbrMetallicRoughness":{
				"baseColorTexture":{
					"index":0
				},
				"metallicFactor":0
			}
		},
		{
			"doubleSided":true,
			"name":"10.rev",
			"pbrMetallicRoughness":{
				"baseColorTexture":{
					"index":1
				},
				"metallicFactor":0
			}
		},
		{
			"doubleSided":true,
			"name":"Band",
			"pbrMetallicRoughness":{
				"baseColorFactor":[
					0.800000011920929,
					0.800000011920929,
					0.800000011920929,
					1
				],
				"metallicFactor":0,
				"roughnessFactor":0.3571428656578064
			}
		}
	],
	"meshes":[
		{
			"name":"Plane.014",
			"primitives":[
				{
					"attributes":{
						"POSITION":0,
						"NORMAL":1,
						"TEXCOORD_0":2
					},
					"indices":3,
					"material":0
				},
				{
					"attributes":{
						"POSITION":4,
						"NORMAL":5,
						"TEXCOORD_0":6
					},
					"indices":7,
					"material":1
				},
				{
					"attributes":{
						"POSITION":8,
						"NORMAL":9,
						"TEXCOORD_0":10
					},
					"indices":11,
					"material":2
				}
			]
		}
	],
	"textures":[
		{
			"sampler":0,
			"source":0
		},
		{
			"sampler":0,
			"source":1
		}
	],
	"images":[
		{
			"mimeType":"image/png",
			"name":"100_rupees..png",
			"uri":"../../../TEXTURES/100_rupees..png"
		},
		{
			"mimeType":"image/png",
			"name":"Reverse_of_the_10_rupees..png",
			"uri":"../../../TEXTURES/Reverse_of_the_10_rupees..png"
		}
	],
	"accessors":[
		{
			"bufferView":0,
			"componentType":5126,
			"count":52,
			"max":[
				1.5176217555999756,
				0.28423377871513367,
				1.1167197227478027
			],
			"min":[
				-3.3630523681640625,
				-0.2842337191104889,
				-1.1167197227478027
			],
			"type":"VEC3"
		},
		{
			"bufferView":1,
			"componentType":5126,
			"count":52,
			"type":"VEC3"
		},
		{
			"bufferView":2,
			"componentType":5126,
			"count":52,
			"type":"VEC2"
		},
		{
			"bufferView":3,
			"componentType":5123,
			"count":84,
			"type":"SCALAR"
		},
		{
			"bufferView":4,
			"componentType":5126,
			"count":16,
			"max":[
				1.5176217555999756,
				-0.27675798535346985,
				1.1167197227478027
			],
			"min":[
				-3.3630521297454834,
				-0.2842337191104889,
				-1.1167197227478027
			],
			"type":"VEC3"
		},
		{
			"bufferView":5,
			"componentType":5126,
			"count":16,
			"type":"VEC3"
		},
		{
			"bufferView":6,
			"componentType":5126,
			"count":16,
			"type":"VEC2"
		},
		{
			"bufferView":7,
			"componentType":5123,
			"count":24,
			"type":"SCALAR"
		},
		{
			"bufferView":8,
			"componentType":5126,
			"count":16,
			"max":[
				0.8205797672271729,
				0.28423377871513367,
				1.1167197227478027
			],
			"min":[
				0.10213541984558105,
				-0.2842337191104889,
				-1.1167197227478027
			],
			"type":"VEC3"
		},
		{
			"bufferView":9,
			"componentType":5126,
			"count":16,
			"type":"VEC3"
		},
		{
			"bufferView":10,
			"componentType":5126,
			"count":16,
			"type":"VEC2"
		},
		{
			"bufferView":11,
			"componentType":5123,
			"count":24,
			"type":"SCALAR"
		}
	],
	"bufferViews":[
		{
			"buffer":0,
			"byteLength":624,
			"byteOffset":0,
			"target":34962
		},
		{
			"buffer":0,
			"byteLength":624,
			"byteOffset":624,
			"target":34962
		},
		{
			"buffer":0,
			"byteLength":416,
			"byteOffset":1248,
			"target":34962
		},
		{
			"buffer":0,
			"byteLength":168,
			"byteOffset":1664,
			"target":34963
		},
		{
			"buffer":0,
			"byteLength":192,
			"byteOffset":1832,
			"target":34962
		},
		{
			"buffer":0,
			"byteLength":192,
			"byteOffset":2024,
			"target":34962
		},
		{
			"buffer":0,
			"byteLength":128,
			"byteOffset":2216,
			"target":34962
		},
		{
			"buffer":0,
			"byteLength":48,
			"byteOffset":2344,
			"target":34963
		},
		{
			"buffer":0,
			"byteLength":192,
			"byteOffset":2392,
			"target":34962
		},
		{
			"buffer":0,
			"byteLength":192,
			"byteOffset":2584,
			"target":34962
		},
		{
			"buffer":0,
			"byteLength":128,
			"byteOffset":2776,
			"target":34962
		},
		{
			"buffer":0,
			"byteLength":48,
			"byteOffset":2904,
			"target":34963
		}
	],
	"samplers":[
		{
			"magFilter":9729,
			"minFilter":9987
		}
	],
	"buffers":[
		{
			"byteLength":2952,
			"uri":"100_bundle_01.bin"
		}
	]
}
