{
	"asset":{
		"generator":"Khronos glTF Blender I/O v4.5.49",
		"version":"2.0"
	},
	"scene":0,
	"scenes":[
		{
			"name":"Scene",
			"nodes":[
				0
			]
		}
	],
	"nodes":[
		{
			"mesh":0,
			"name":"200.002",
			"translation":[
				13.605042457580566,
				0.19043616950511932,
				-15.332826614379883
			]
		}
	],
	"materials":[
		{
			"doubleSided":true,
			"name":"Band",
			"pbrMetallicRoughness":{
				"baseColorFactor":[
					0.800000011920929,
					0.800000011920929,
					0.800000011920929,
					1
				],
				"metallicFactor":0,
				"roughnessFactor":0.3571428656578064
			}
		},
		{
			"doubleSided":true,
			"name":"200",
			"pbrMetallicRoughness":{
				"baseColorTexture":{
					"index":0
				},
				"metallicFactor":0
			}
		},
		{
			"doubleSided":true,
			"name":"200_rev",
			"pbrMetallicRoughness":{
				"baseColorTexture":{
					"index":1
				},
				"metallicFactor":0
			}
		}
	],
	"meshes":[
		{
			"name":"Plane.036",
			"primitives":[
				{
					"attributes":{
						"POSITION":0,
						"NORMAL":1,
						"TEXCOORD_0":2
					},
					"indices":3,
					"material":0
				},
				{
					"attributes":{
						"POSITION":4,
						"NORMAL":5,
						"TEXCOORD_0":6
					},
					"indices":7,
					"material":1
				},
				{
					"attributes":{
						"POSITION":8,
						"NORMAL":9,
						"TEXCOORD_0":10
					},
					"indices":11,
					"material":2
				}
			]
		}
	],
	"textures":[
		{
			"sampler":0,
			"source":0
		},
		{
			"sampler":0,
			"source":1
		}
	],
	"images":[
		{
			"mimeType":"image/png",
			"name":"200_rupees..png",
			"uri":"../../../TEXTURES/200_rupees..png"
		},
		{
			"mimeType":"image/png",
			"name":"Reverse_of_the_200_rupees..png",
			"uri":"../../../TEXTURES/Reverse_of_the_200_rupees..png"
		}
	],
	"accessors":[
		{
			"bufferView":0,
			"componentType":5126,
			"count":60,
			"max":[
				1.7696210145950317,
				0.2094426453113556,
				1.1662201881408691
			],
			"min":[
				1.0297422409057617,
				-0.19813494384288788,
				-1.2074928283691406
			],
			"type":"VEC3"
		},
		{
			"bufferView":1,
			"componentType":5126,
			"count":60,
			"type":"VEC3"
		},
		{
			"bufferView":2,
			"componentType":5126,
			"count":60,
			"type":"VEC2"
		},
		{
			"bufferView":3,
			"componentType":5123,
			"count":96,
			"type":"SCALAR"
		},
		{
			"bufferView":4,
			"componentType":5126,
			"count":1080,
			"max":[
				2.5281333923339844,
				0.1914173662662506,
				1.2443681955337524
			],
			"min":[
				-2.640164852142334,
				-0.1904362440109253,
				-1.2190208435058594
			],
			"type":"VEC3"
		},
		{
			"bufferView":5,
			"componentType":5126,
			"count":1080,
			"type":"VEC3"
		},
		{
			"bufferView":6,
			"componentType":5126,
			"count":1080,
			"type":"VEC2"
		},
		{
			"bufferView":7,
			"componentType":5123,
			"count":1620,
			"type":"SCALAR"
		},
		{
			"bufferView":8,
			"componentType":5126,
			"count":216,
			"max":[
				2.5281333923339844,
				0.1911028027534485,
				1.2443681955337524
			],
			"min":[
				-2.640164852142334,
				-0.1904362440109253,
				-1.2190208435058594
			],
			"type":"VEC3"
		},
		{
			"bufferView":9,
			"componentType":5126,
			"count":216,
			"type":"VEC3"
		},
		{
			"bufferView":10,
			"componentType":5126,
			"count":216,
			"type":"VEC2"
		},
		{
			"bufferView":11,
			"componentType":5123,
			"count":324,
			"type":"SCALAR"
		}
	],
	"bufferViews":[
		{
			"buffer":0,
			"byteLength":720,
			"byteOffset":0,
			"target":34962
		},
		{
			"buffer":0,
			"byteLength":720,
			"byteOffset":720,
			"target":34962
		},
		{
			"buffer":0,
			"byteLength":480,
			"byteOffset":1440,
			"target":34962
		},
		{
			"buffer":0,
			"byteLength":192,
			"byteOffset":1920,
			"target":34963
		},
		{
			"buffer":0,
			"byteLength":12960,
			"byteOffset":2112,
			"target":34962
		},
		{
			"buffer":0,
			"byteLength":12960,
			"byteOffset":15072,
			"target":34962
		},
		{
			"buffer":0,
			"byteLength":8640,
			"byteOffset":28032,
			"target":34962
		},
		{
			"buffer":0,
			"byteLength":3240,
			"byteOffset":36672,
			"target":34963
		},
		{
			"buffer":0,
			"byteLength":2592,
			"byteOffset":39912,
			"target":34962
		},
		{
			"buffer":0,
			"byteLength":2592,
			"byteOffset":42504,
			"target":34962
		},
		{
			"buffer":0,
			"byteLength":1728,
			"byteOffset":45096,
			"target":34962
		},
		{
			"buffer":0,
			"byteLength":648,
			"byteOffset":46824,
			"target":34963
		}
	],
	"samplers":[
		{
			"magFilter":9729,
			"minFilter":9987
		}
	],
	"buffers":[
		{
			"byteLength":47472,
			"uri":"200_bundle_02.bin"
		}
	]
}
