{
	"asset":{
		"generator":"Khronos glTF Blender I/O v4.5.49",
		"version":"2.0"
	},
	"scene":0,
	"scenes":[
		{
			"name":"Scene",
			"nodes":[
				0
			]
		}
	],
	"nodes":[
		{
			"mesh":0,
			"name":"200.001",
			"translation":[
				7.45230770111084,
				0.2858281433582306,
				-15.313318252563477
			]
		}
	],
	"materials":[
		{
			"doubleSided":true,
			"name":"200",
			"pbrMetallicRoughness":{
				"baseColorTexture":{
					"index":0
				},
				"metallicFactor":0
			}
		},
		{
			"doubleSided":true,
			"name":"200_rev",
			"pbrMetallicRoughness":{
				"baseColorTexture":{
					"index":1
				},
				"metallicFactor":0
			}
		},
		{
			"doubleSided":true,
			"name":"Band",
			"pbrMetallicRoughness":{
				"baseColorFactor":[
					0.800000011920929,
					0.800000011920929,
					0.800000011920929,
					1
				],
				"metallicFactor":0,
				"roughnessFactor":0.3571428656578064
			}
		}
	],
	"meshes":[
		{
			"name":"Plane.015",
			"primitives":[
				{
					"attributes":{
						"POSITION":0,
						"NORMAL":1,
						"TEXCOORD_0":2
					},
					"indices":3,
					"material":0
				},
				{
					"attributes":{
						"POSITION":4,
						"NORMAL":5,
						"TEXCOORD_0":6
					},
					"indices":7,
					"material":1
				},
				{
					"attributes":{
						"POSITION":8,
						"NORMAL":9,
						"TEXCOORD_0":10
					},
					"indices":11,
					"material":2
				}
			]
		}
	],
	"textures":[
		{
			"sampler":0,
			"source":0
		},
		{
			"sampler":0,
			"source":1
		}
	],
	"images":[
		{
			"mimeType":"image/png",
			"name":"200_rupees..png",
			"uri":"../../../TEXTURES/200_rupees..png"
		},
		{
			"mimeType":"image/png",
			"name":"Reverse_of_the_200_rupees..png",
			"uri":"../../../TEXTURES/Reverse_of_the_200_rupees..png"
		}
	],
	"accessors":[
		{
			"bufferView":0,
			"componentType":5126,
			"count":52,
			"max":[
				1.5673619508743286,
				0.2935495972633362,
				1.1533204317092896
			],
			"min":[
				-3.4732770919799805,
				-0.293549507856369,
				-1.1533204317092896
			],
			"type":"VEC3"
		},
		{
			"bufferView":1,
			"componentType":5126,
			"count":52,
			"type":"VEC3"
		},
		{
			"bufferView":2,
			"componentType":5126,
			"count":52,
			"type":"VEC2"
		},
		{
			"bufferView":3,
			"componentType":5123,
			"count":84,
			"type":"SCALAR"
		},
		{
			"bufferView":4,
			"componentType":5126,
			"count":16,
			"max":[
				1.5673619508743286,
				-0.28582876920700073,
				1.1533204317092896
			],
			"min":[
				-3.4732770919799805,
				-0.293549507856369,
				-1.1533204317092896
			],
			"type":"VEC3"
		},
		{
			"bufferView":5,
			"componentType":5126,
			"count":16,
			"type":"VEC3"
		},
		{
			"bufferView":6,
			"componentType":5126,
			"count":16,
			"type":"VEC2"
		},
		{
			"bufferView":7,
			"componentType":5123,
			"count":24,
			"type":"SCALAR"
		},
		{
			"bufferView":8,
			"componentType":5126,
			"count":16,
			"max":[
				0.8474743366241455,
				0.2935495972633362,
				1.1533204317092896
			],
			"min":[
				0.10548281669616699,
				-0.293549507856369,
				-1.1533204317092896
			],
			"type":"VEC3"
		},
		{
			"bufferView":9,
			"componentType":5126,
			"count":16,
			"type":"VEC3"
		},
		{
			"bufferView":10,
			"componentType":5126,
			"count":16,
			"type":"VEC2"
		},
		{
			"bufferView":11,
			"componentType":5123,
			"count":24,
			"type":"SCALAR"
		}
	],
	"bufferViews":[
		{
			"buffer":0,
			"byteLength":624,
			"byteOffset":0,
			"target":34962
		},
		{
			"buffer":0,
			"byteLength":624,
			"byteOffset":624,
			"target":34962
		},
		{
			"buffer":0,
			"byteLength":416,
			"byteOffset":1248,
			"target":34962
		},
		{
			"buffer":0,
			"byteLength":168,
			"byteOffset":1664,
			"target":34963
		},
		{
			"buffer":0,
			"byteLength":192,
			"byteOffset":1832,
			"target":34962
		},
		{
			"buffer":0,
			"byteLength":192,
			"byteOffset":2024,
			"target":34962
		},
		{
			"buffer":0,
			"byteLength":128,
			"byteOffset":2216,
			"target":34962
		},
		{
			"buffer":0,
			"byteLength":48,
			"byteOffset":2344,
			"target":34963
		},
		{
			"buffer":0,
			"byteLength":192,
			"byteOffset":2392,
			"target":34962
		},
		{
			"buffer":0,
			"byteLength":192,
			"byteOffset":2584,
			"target":34962
		},
		{
			"buffer":0,
			"byteLength":128,
			"byteOffset":2776,
			"target":34962
		},
		{
			"buffer":0,
			"byteLength":48,
			"byteOffset":2904,
			"target":34963
		}
	],
	"samplers":[
		{
			"magFilter":9729,
			"minFilter":9987
		}
	],
	"buffers":[
		{
			"byteLength":2952,
			"uri":"200_bundle_01.bin"
		}
	]
}
