{
	"asset":{
		"generator":"Khronos glTF Blender I/O v4.5.49",
		"version":"2.0"
	},
	"scene":0,
	"scenes":[
		{
			"name":"Scene",
			"nodes":[
				0
			]
		}
	],
	"nodes":[
		{
			"mesh":0,
			"name":"20.003",
			"rotation":[
				0,
				0.09060346335172653,
				0,
				0.995887041091919
			],
			"translation":[
				20.734745025634766,
				0.2164924144744873,
				-3.5835742950439453
			]
		}
	],
	"materials":[
		{
			"doubleSided":true,
			"name":"20",
			"pbrMetallicRoughness":{
				"baseColorTexture":{
					"index":0
				},
				"metallicFactor":0
			}
		},
		{
			"doubleSided":true,
			"name":"20_rev",
			"pbrMetallicRoughness":{
				"baseColorTexture":{
					"index":1
				},
				"metallicFactor":0
			}
		}
	],
	"meshes":[
		{
			"name":"Plane.044",
			"primitives":[
				{
					"attributes":{
						"POSITION":0,
						"NORMAL":1,
						"TEXCOORD_0":2
					},
					"indices":3,
					"material":0
				},
				{
					"attributes":{
						"POSITION":4,
						"NORMAL":5,
						"TEXCOORD_0":6
					},
					"indices":7,
					"material":1
				}
			]
		}
	],
	"textures":[
		{
			"sampler":0,
			"source":0
		},
		{
			"sampler":0,
			"source":1
		}
	],
	"images":[
		{
			"mimeType":"image/png",
			"name":"20_rupees..png",
			"uri":"../../../TEXTURES/20_rupees..png"
		},
		{
			"mimeType":"image/png",
			"name":"Reverse_of_the_20_rupees..png",
			"uri":"../../../TEXTURES/Reverse_of_the_20_rupees..png"
		}
	],
	"accessors":[
		{
			"bufferView":0,
			"componentType":5126,
			"count":480,
			"max":[
				2.5636892318725586,
				0.21467161178588867,
				1.7389841079711914
			],
			"min":[
				-2.5358150005340576,
				-0.21731749176979065,
				-1.8841265439987183
			],
			"type":"VEC3"
		},
		{
			"bufferView":1,
			"componentType":5126,
			"count":480,
			"type":"VEC3"
		},
		{
			"bufferView":2,
			"componentType":5126,
			"count":480,
			"type":"VEC2"
		},
		{
			"bufferView":3,
			"componentType":5123,
			"count":720,
			"type":"SCALAR"
		},
		{
			"bufferView":4,
			"componentType":5126,
			"count":96,
			"max":[
				2.5636892318725586,
				0.2143826186656952,
				1.7389841079711914
			],
			"min":[
				-2.5358150005340576,
				-0.21731749176979065,
				-1.8841265439987183
			],
			"type":"VEC3"
		},
		{
			"bufferView":5,
			"componentType":5126,
			"count":96,
			"type":"VEC3"
		},
		{
			"bufferView":6,
			"componentType":5126,
			"count":96,
			"type":"VEC2"
		},
		{
			"bufferView":7,
			"componentType":5123,
			"count":144,
			"type":"SCALAR"
		}
	],
	"bufferViews":[
		{
			"buffer":0,
			"byteLength":5760,
			"byteOffset":0,
			"target":34962
		},
		{
			"buffer":0,
			"byteLength":5760,
			"byteOffset":5760,
			"target":34962
		},
		{
			"buffer":0,
			"byteLength":3840,
			"byteOffset":11520,
			"target":34962
		},
		{
			"buffer":0,
			"byteLength":1440,
			"byteOffset":15360,
			"target":34963
		},
		{
			"buffer":0,
			"byteLength":1152,
			"byteOffset":16800,
			"target":34962
		},
		{
			"buffer":0,
			"byteLength":1152,
			"byteOffset":17952,
			"target":34962
		},
		{
			"buffer":0,
			"byteLength":768,
			"byteOffset":19104,
			"target":34962
		},
		{
			"buffer":0,
			"byteLength":288,
			"byteOffset":19872,
			"target":34963
		}
	],
	"samplers":[
		{
			"magFilter":9729,
			"minFilter":9987
		}
	],
	"buffers":[
		{
			"byteLength":20160,
			"uri":"20_bundle_03.bin"
		}
	]
}
