{
	"asset":{
		"generator":"Khronos glTF Blender I/O v4.5.49",
		"version":"2.0"
	},
	"scene":0,
	"scenes":[
		{
			"name":"Scene",
			"nodes":[
				0
			]
		}
	],
	"nodes":[
		{
			"mesh":0,
			"name":"20.001",
			"translation":[
				7.361966133117676,
				0.2587312161922455,
				-3.507967233657837
			]
		}
	],
	"materials":[
		{
			"doubleSided":true,
			"name":"20",
			"pbrMetallicRoughness":{
				"baseColorTexture":{
					"index":0
				},
				"metallicFactor":0
			}
		},
		{
			"doubleSided":true,
			"name":"20_rev",
			"pbrMetallicRoughness":{
				"baseColorTexture":{
					"index":1
				},
				"metallicFactor":0
			}
		},
		{
			"doubleSided":true,
			"name":"Band",
			"pbrMetallicRoughness":{
				"baseColorFactor":[
					0.800000011920929,
					0.800000011920929,
					0.800000011920929,
					1
				],
				"metallicFactor":0,
				"roughnessFactor":0.3571428656578064
			}
		}
	],
	"meshes":[
		{
			"name":"Plane.012",
			"primitives":[
				{
					"attributes":{
						"POSITION":0,
						"NORMAL":1,
						"TEXCOORD_0":2
					},
					"indices":3,
					"material":0
				},
				{
					"attributes":{
						"POSITION":4,
						"NORMAL":5,
						"TEXCOORD_0":6
					},
					"indices":7,
					"material":1
				},
				{
					"attributes":{
						"POSITION":8,
						"NORMAL":9,
						"TEXCOORD_0":10
					},
					"indices":11,
					"material":2
				}
			]
		}
	],
	"textures":[
		{
			"sampler":0,
			"source":0
		},
		{
			"sampler":0,
			"source":1
		}
	],
	"images":[
		{
			"mimeType":"image/png",
			"name":"20_rupees..png",
			"uri":"../../../TEXTURES/20_rupees..png"
		},
		{
			"mimeType":"image/png",
			"name":"Reverse_of_the_20_rupees..png",
			"uri":"../../../TEXTURES/Reverse_of_the_20_rupees..png"
		}
	],
	"accessors":[
		{
			"bufferView":0,
			"componentType":5126,
			"count":52,
			"max":[
				1.4187737703323364,
				0.2657206654548645,
				1.043984055519104
			],
			"min":[
				-3.144005298614502,
				-0.26572057604789734,
				-1.043984055519104
			],
			"type":"VEC3"
		},
		{
			"bufferView":1,
			"componentType":5126,
			"count":52,
			"type":"VEC3"
		},
		{
			"bufferView":2,
			"componentType":5126,
			"count":52,
			"type":"VEC2"
		},
		{
			"bufferView":3,
			"componentType":5123,
			"count":84,
			"type":"SCALAR"
		},
		{
			"bufferView":4,
			"componentType":5126,
			"count":16,
			"max":[
				1.4187737703323364,
				-0.25873178243637085,
				1.043984055519104
			],
			"min":[
				-3.144005298614502,
				-0.26572057604789734,
				-1.043984055519104
			],
			"type":"VEC3"
		},
		{
			"bufferView":5,
			"componentType":5126,
			"count":16,
			"type":"VEC3"
		},
		{
			"bufferView":6,
			"componentType":5126,
			"count":16,
			"type":"VEC2"
		},
		{
			"bufferView":7,
			"componentType":5123,
			"count":24,
			"type":"SCALAR"
		},
		{
			"bufferView":8,
			"componentType":5126,
			"count":16,
			"max":[
				0.7671325206756592,
				0.2657206654548645,
				1.043984055519104
			],
			"min":[
				0.09548294544219971,
				-0.26572057604789734,
				-1.043984055519104
			],
			"type":"VEC3"
		},
		{
			"bufferView":9,
			"componentType":5126,
			"count":16,
			"type":"VEC3"
		},
		{
			"bufferView":10,
			"componentType":5126,
			"count":16,
			"type":"VEC2"
		},
		{
			"bufferView":11,
			"componentType":5123,
			"count":24,
			"type":"SCALAR"
		}
	],
	"bufferViews":[
		{
			"buffer":0,
			"byteLength":624,
			"byteOffset":0,
			"target":34962
		},
		{
			"buffer":0,
			"byteLength":624,
			"byteOffset":624,
			"target":34962
		},
		{
			"buffer":0,
			"byteLength":416,
			"byteOffset":1248,
			"target":34962
		},
		{
			"buffer":0,
			"byteLength":168,
			"byteOffset":1664,
			"target":34963
		},
		{
			"buffer":0,
			"byteLength":192,
			"byteOffset":1832,
			"target":34962
		},
		{
			"buffer":0,
			"byteLength":192,
			"byteOffset":2024,
			"target":34962
		},
		{
			"buffer":0,
			"byteLength":128,
			"byteOffset":2216,
			"target":34962
		},
		{
			"buffer":0,
			"byteLength":48,
			"byteOffset":2344,
			"target":34963
		},
		{
			"buffer":0,
			"byteLength":192,
			"byteOffset":2392,
			"target":34962
		},
		{
			"buffer":0,
			"byteLength":192,
			"byteOffset":2584,
			"target":34962
		},
		{
			"buffer":0,
			"byteLength":128,
			"byteOffset":2776,
			"target":34962
		},
		{
			"buffer":0,
			"byteLength":48,
			"byteOffset":2904,
			"target":34963
		}
	],
	"samplers":[
		{
			"magFilter":9729,
			"minFilter":9987
		}
	],
	"buffers":[
		{
			"byteLength":2952,
			"uri":"20_bundle_01.bin"
		}
	]
}
