{
	"asset":{
		"generator":"Khronos glTF Blender I/O v4.5.49",
		"version":"2.0"
	},
	"scene":0,
	"scenes":[
		{
			"name":"Scene",
			"nodes":[
				0
			]
		}
	],
	"nodes":[
		{
			"mesh":0,
			"name":"20",
			"translation":[
				0,
				0.00013768095232080668,
				-3.507967233657837
			]
		}
	],
	"materials":[
		{
			"doubleSided":true,
			"name":"20",
			"pbrMetallicRoughness":{
				"baseColorTexture":{
					"index":0
				},
				"metallicFactor":0
			}
		},
		{
			"doubleSided":true,
			"name":"20_rev",
			"pbrMetallicRoughness":{
				"baseColorTexture":{
					"index":1
				},
				"metallicFactor":0
			}
		}
	],
	"meshes":[
		{
			"name":"Plane.001",
			"primitives":[
				{
					"attributes":{
						"POSITION":0,
						"NORMAL":1,
						"TEXCOORD_0":2
					},
					"indices":3,
					"material":0
				},
				{
					"attributes":{
						"POSITION":4,
						"NORMAL":5,
						"TEXCOORD_0":6
					},
					"indices":7,
					"material":1
				}
			]
		}
	],
	"textures":[
		{
			"sampler":0,
			"source":0
		},
		{
			"sampler":0,
			"source":1
		}
	],
	"images":[
		{
			"mimeType":"image/png",
			"name":"20_rupees..png",
			"uri":"../../../TEXTURES/20_rupees..png"
		},
		{
			"mimeType":"image/png",
			"name":"Reverse_of_the_20_rupees..png",
			"uri":"../../../TEXTURES/Reverse_of_the_20_rupees..png"
		}
	],
	"accessors":[
		{
			"bufferView":0,
			"componentType":5126,
			"count":83,
			"max":[
				2.282146692276001,
				0.00013768089411314577,
				1.0373393297195435
			],
			"min":[
				-2.282146692276001,
				-0.00013768095232080668,
				-1.0373393297195435
			],
			"type":"VEC3"
		},
		{
			"bufferView":1,
			"componentType":5126,
			"count":83,
			"type":"VEC3"
		},
		{
			"bufferView":2,
			"componentType":5126,
			"count":83,
			"type":"VEC2"
		},
		{
			"bufferView":3,
			"componentType":5123,
			"count":264,
			"type":"SCALAR"
		},
		{
			"bufferView":4,
			"componentType":5126,
			"count":35,
			"max":[
				2.282146692276001,
				-0.00013768095232080668,
				1.0373393297195435
			],
			"min":[
				-2.282146692276001,
				-0.00013768095232080668,
				-1.0373393297195435
			],
			"type":"VEC3"
		},
		{
			"bufferView":5,
			"componentType":5126,
			"count":35,
			"type":"VEC3"
		},
		{
			"bufferView":6,
			"componentType":5126,
			"count":35,
			"type":"VEC2"
		},
		{
			"bufferView":7,
			"componentType":5123,
			"count":144,
			"type":"SCALAR"
		}
	],
	"bufferViews":[
		{
			"buffer":0,
			"byteLength":996,
			"byteOffset":0,
			"target":34962
		},
		{
			"buffer":0,
			"byteLength":996,
			"byteOffset":996,
			"target":34962
		},
		{
			"buffer":0,
			"byteLength":664,
			"byteOffset":1992,
			"target":34962
		},
		{
			"buffer":0,
			"byteLength":528,
			"byteOffset":2656,
			"target":34963
		},
		{
			"buffer":0,
			"byteLength":420,
			"byteOffset":3184,
			"target":34962
		},
		{
			"buffer":0,
			"byteLength":420,
			"byteOffset":3604,
			"target":34962
		},
		{
			"buffer":0,
			"byteLength":280,
			"byteOffset":4024,
			"target":34962
		},
		{
			"buffer":0,
			"byteLength":288,
			"byteOffset":4304,
			"target":34963
		}
	],
	"samplers":[
		{
			"magFilter":9729,
			"minFilter":9987
		}
	],
	"buffers":[
		{
			"byteLength":4592,
			"uri":"20_single.bin"
		}
	]
}
