{
	"asset":{
		"generator":"Khronos glTF Blender I/O v4.5.49",
		"version":"2.0"
	},
	"scene":0,
	"scenes":[
		{
			"name":"Scene",
			"nodes":[
				0
			]
		}
	],
	"nodes":[
		{
			"mesh":0,
			"name":"500.002",
			"translation":[
				13.60596752166748,
				0.19729933142662048,
				-19.747028350830078
			]
		}
	],
	"materials":[
		{
			"doubleSided":true,
			"name":"Band",
			"pbrMetallicRoughness":{
				"baseColorFactor":[
					0.800000011920929,
					0.800000011920929,
					0.800000011920929,
					1
				],
				"metallicFactor":0,
				"roughnessFactor":0.3571428656578064
			}
		},
		{
			"doubleSided":true,
			"name":"500",
			"pbrMetallicRoughness":{
				"baseColorTexture":{
					"index":0
				},
				"metallicFactor":0
			}
		},
		{
			"doubleSided":true,
			"name":"500_rev",
			"pbrMetallicRoughness":{
				"baseColorTexture":{
					"index":1
				},
				"metallicFactor":0
			}
		}
	],
	"meshes":[
		{
			"name":"Plane.037",
			"primitives":[
				{
					"attributes":{
						"POSITION":0,
						"NORMAL":1,
						"TEXCOORD_0":2
					},
					"indices":3,
					"material":0
				},
				{
					"attributes":{
						"POSITION":4,
						"NORMAL":5,
						"TEXCOORD_0":6
					},
					"indices":7,
					"material":1
				},
				{
					"attributes":{
						"POSITION":8,
						"NORMAL":9,
						"TEXCOORD_0":10
					},
					"indices":11,
					"material":2
				}
			]
		}
	],
	"textures":[
		{
			"sampler":0,
			"source":0
		},
		{
			"sampler":0,
			"source":1
		}
	],
	"images":[
		{
			"mimeType":"image/png",
			"name":"500_rupees..png",
			"uri":"../../../TEXTURES/500_rupees..png"
		},
		{
			"mimeType":"image/png",
			"name":"Reverse_of_the_500_rupees..png",
			"uri":"../../../TEXTURES/Reverse_of_the_500_rupees..png"
		}
	],
	"accessors":[
		{
			"bufferView":0,
			"componentType":5126,
			"count":60,
			"max":[
				1.8333971500396729,
				0.21699093282222748,
				1.2082501649856567
			],
			"min":[
				1.0668535232543945,
				-0.20527556538581848,
				-1.2510102987289429
			],
			"type":"VEC3"
		},
		{
			"bufferView":1,
			"componentType":5126,
			"count":60,
			"type":"VEC3"
		},
		{
			"bufferView":2,
			"componentType":5126,
			"count":60,
			"type":"VEC2"
		},
		{
			"bufferView":3,
			"componentType":5123,
			"count":96,
			"type":"SCALAR"
		},
		{
			"bufferView":4,
			"componentType":5126,
			"count":1080,
			"max":[
				2.619246244430542,
				0.19831602275371552,
				1.2892144918441772
			],
			"min":[
				-2.7353150844573975,
				-0.19729940593242645,
				-1.2629538774490356
			],
			"type":"VEC3"
		},
		{
			"bufferView":5,
			"componentType":5126,
			"count":1080,
			"type":"VEC3"
		},
		{
			"bufferView":6,
			"componentType":5126,
			"count":1080,
			"type":"VEC2"
		},
		{
			"bufferView":7,
			"componentType":5123,
			"count":1620,
			"type":"SCALAR"
		},
		{
			"bufferView":8,
			"componentType":5126,
			"count":216,
			"max":[
				2.619246244430542,
				0.19799010455608368,
				1.2892144918441772
			],
			"min":[
				-2.7353150844573975,
				-0.19729940593242645,
				-1.2629538774490356
			],
			"type":"VEC3"
		},
		{
			"bufferView":9,
			"componentType":5126,
			"count":216,
			"type":"VEC3"
		},
		{
			"bufferView":10,
			"componentType":5126,
			"count":216,
			"type":"VEC2"
		},
		{
			"bufferView":11,
			"componentType":5123,
			"count":324,
			"type":"SCALAR"
		}
	],
	"bufferViews":[
		{
			"buffer":0,
			"byteLength":720,
			"byteOffset":0,
			"target":34962
		},
		{
			"buffer":0,
			"byteLength":720,
			"byteOffset":720,
			"target":34962
		},
		{
			"buffer":0,
			"byteLength":480,
			"byteOffset":1440,
			"target":34962
		},
		{
			"buffer":0,
			"byteLength":192,
			"byteOffset":1920,
			"target":34963
		},
		{
			"buffer":0,
			"byteLength":12960,
			"byteOffset":2112,
			"target":34962
		},
		{
			"buffer":0,
			"byteLength":12960,
			"byteOffset":15072,
			"target":34962
		},
		{
			"buffer":0,
			"byteLength":8640,
			"byteOffset":28032,
			"target":34962
		},
		{
			"buffer":0,
			"byteLength":3240,
			"byteOffset":36672,
			"target":34963
		},
		{
			"buffer":0,
			"byteLength":2592,
			"byteOffset":39912,
			"target":34962
		},
		{
			"buffer":0,
			"byteLength":2592,
			"byteOffset":42504,
			"target":34962
		},
		{
			"buffer":0,
			"byteLength":1728,
			"byteOffset":45096,
			"target":34962
		},
		{
			"buffer":0,
			"byteLength":648,
			"byteOffset":46824,
			"target":34963
		}
	],
	"samplers":[
		{
			"magFilter":9729,
			"minFilter":9987
		}
	],
	"buffers":[
		{
			"byteLength":47472,
			"uri":"500_bundle_02.bin"
		}
	]
}
